<svg xmlns="http://www.w3.org/2000/svg" version="1.0" preserveAspectRatio="xMidYMid meet" viewBox="1500.11 431.2 194.89 317.8">

<g transform="translate(0.000000,1600.000000) scale(0.100000,-0.100000)" fill="#000000" stroke="none">
<path d="M15661 11674 c-187 -50 -322 -204 -324 -369 -1 -121 76 -314 176 -444 53 -69 138 -136 194 -153 43 -12 52 -21 33 -33 -18 -11 -11 -35 11 -35 21 0 21 0 16 -287 -4 -281 -24 -757 -32 -799 -4 -18 -14 -22 -77 -28 -40 -4 -99 -13 -132 -22 -139 -36 -314 -152 -417 -277 -30 -36 -60 -66 -66 -66 -7 -1 -20 -13 -30 -27 -16 -24 -16 -28 1 -59 10 -18 38 -56 63 -84 l46 -53 -41 -76 c-110 -208 -62 -241 154 -107 l70 44 75 -29 c96 -37 210 -60 298 -60 75 0 237 28 311 54 25 9 48 16 52 16 15 0 28 -68 22 -124 -4 -35 -1 -79 5 -103 10 -36 16 -43 36 -43 29 0 85 67 153 181 54 89 59 113 33 163 -12 22 -20 41 -18 42 28 23 108 62 122 59 11 -2 32 -6 46 -9 17 -4 42 -26 68 -61 57 -75 87 -89 175 -81 120 11 266 65 266 98 0 28 -72 129 -126 177 -44 39 -50 41 -109 41 -34 0 -84 -7 -111 -15 -27 -8 -50 -15 -52 -15 -1 0 2 9 8 19 13 24 3 51 -19 51 -9 0 -32 14 -51 31 -184 162 -457 301 -636 325 l-52 6 -6 172 c-3 94 -7 343 -9 553 -2 372 -1 383 18 397 16 12 18 19 9 32 -9 15 -2 22 50 48 178 88 358 400 344 594 -17 240 -298 423 -547 356z m-29 -119 c-25 -22 -54 -63 -74 -103 -29 -59 -33 -76 -33 -149 l0 -83 -52 0 -53 0 0 39 c0 87 50 196 119 259 22 20 116 72 130 72 3 0 -14 -16 -37 -35z m1157 -2511 c54 -69 -14 -165 -95 -134 -56 22 -72 85 -33 134 16 21 29 26 64 26 35 0 48 -5 64 -26z m-534 -60 c-35 -27 -218 -112 -300 -139 -111 -36 -256 -58 -333 -51 -35 4 -98 18 -140 31 -75 24 -225 107 -253 141 -7 9 4 4 26 -11 192 -131 434 -164 679 -94 120 35 128 38 231 88 109 54 120 58 90 35z"/>
<path d="M16760 9000 c0 -5 5 -10 10 -10 6 0 10 5 10 10 0 6 -4 10 -10 10 -5 0 -10 -4 -10 -10z"/>
</g>
</svg>